. 
  
http://www.torrentday.com/        :     The Hottest Private Tracker On The Net!!!
 
http://www.torrentday.com          :     Once & For all ;)


               www . TorrentDay . Com 

(((((((((((((= Enjoy No RAR releases =))))))))))))))))))))


...................................NFO:....................................

.[/color=red][size=4][b]Mean.Girls.2.2011.DVDRiP.XViD.AC3.NiTR0[/b][/size][/color]

[/color=red][size=3][b]Plot:[/b][/size][/color]
Genre......: Comedy
iMDB.......: http://www.imdb.com/title/tt1679235/

The story revolves around a new high school student, Jo (Meaghan Jette Martin) , 
who agrees to befriend an outcast, Abby (Jennifer Stone), 
at the urging of Abby's wealthy father in exchange for paying all of Jo's costs for the college of her dreams. 
Jo and Abby team up to take on the school's mean girls, the Plastics, Mandi (Maiara Walsh), 
Hope (Nicole Anderson) and Chastity (Claire Holt).


[/color=red][size=3][b]General[/b][/size][/color]
Complete name                    : Mean.Girls.2.2011.DVDRiP.XViD.AC3.NiTR0.avi
Format                           : AVI
Format/Info                      : Audio Video Interleave
Format profile                   : OpenDML
File size                        : 1.37 GiB
Duration                         : 1h 36mn
Overall bit rate                 : 2 023 Kbps

[/color=red][size=3][b]Video[/b][/size][/color]
Format                           : MPEG-4 Visual
Format profile                   : Advanced Simple@L5
Format settings, BVOP            : 2
Format settings, QPel            : No
Format settings, GMC             : No warppoints
Format settings, Matrix          : Default (H.263)
Muxing mode                      : Packed bitstream
Codec ID                         : XVID
Duration                         : 1h 36mn
Bit rate                         : 1 569 Kbps
Width                            : 720 pixels
Height                           : 400 pixels
Display aspect ratio             : 16:9
Frame rate                       : 23.976 fps
Scan type                        : Progressive
Stream size                      : 1.06 GiB (78%)

[/color=red][size=3][b]Audio[/b][/size][/color]
Format                           : AC-3
Format/Info                      : Audio Coding 3
Duration                         : 1h 36mn
Bit rate mode                    : Constant
Bit rate                         : 448 Kbps
Channel(s)                       : 6 channels
Channel positions                : Front: L C R, Side: L R, LFE
Sampling rate                    : 48.0 KHz
Stream size                      : 310 MiB (22%)

[/color=red][size=3][b]screens[/b][/size][/color]
[img]http://img529.imageshack.us/img529/9161/38933126.png[/img]
[img]http://img529.imageshack.us/img529/5274/43648303.png[/img]
[img]http://img529.imageshack.us/img529/2829/11358412.png[/img]
[img]http://img529.imageshack.us/img529/8316/31591439.png[/img]